# xmcd
#
# Track frame offsets:
#	150
#	15230
#	30462
#	44734
#	59836
#	73176
#	89471
#	106545
#	121184
#	135628
#	150835
#	164654
#	177977
#	196351
#	214359
#	228731
#
# Disc length: 3311 seconds
#
# Revision: 1
# Processed by: cddbd v1.5.2PL0 Copyright (c) Steve Scherf et al.
# Submitted via: audiograbber 1.83.01
#
DISCID=df0ced10
DTITLE=John Williamson - Pipe Dream
DYEAR=1998
DGENRE=Country
TTITLE0=On The Improve
TTITLE1=Wedding Ring
TTITLE2=The Blues Sometimes
TTITLE3=Coolabah Blue
TTITLE4=Pipe Dream
TTITLE5=Vege Bill
TTITLE6=Prettiest Girl In The Kimberley
TTITLE7=The Girl I Met
TTITLE8=Missin' The Kisses
TTITLE9=Power Over Me
TTITLE10=Woman On The Land
TTITLE11=Bush Telegraph
TTITLE12=Rosewood Hill
TTITLE13=Old Pancho
TTITLE14=Sir Don
TTITLE15=Raining On The Rock (with Warren H. Williams)
EXTD=
EXTT0=
EXTT1=
EXTT2=
EXTT3=
EXTT4=
EXTT5=
EXTT6=
EXTT7=
EXTT8=
EXTT9=
EXTT10=
EXTT11=
EXTT12=
EXTT13=
EXTT14=
EXTT15=
PLAYORDER=
